<?xml version="1.0" encoding="utf-8"?>
<!-- Generator: Adobe Illustrator 28.1.0, SVG Export Plug-In . SVG Version: 6.00 Build 0)  -->
<svg version="1.1" id="Layer_1" xmlns="http://www.w3.org/2000/svg" xmlns:xlink="http://www.w3.org/1999/xlink" x="0px" y="0px"
	 viewBox="0 0 2000 2000" style="enable-background:new 0 0 2000 2000;" xml:space="preserve">
<style type="text/css">
	.st0{opacity:5.000000e-02;}
	.st1{fill:none;stroke:#FFFFFF;stroke-width:3;stroke-miterlimit:10;}
	.st2{fill:#FFFFFF;stroke:#FFFFFF;stroke-miterlimit:10;}
</style>
<g class="st0">
	<path class="st1" d="M375.9,164.2h-45.5c-2.8,0-5-2.2-5-5l0,0c0-2.8,2.2-5,5-5h45.5c2.8,0,5,2.2,5,5v0
		C380.9,162,378.6,164.2,375.9,164.2z"/>
	<path class="st2" d="M376.1,160.7h-46c-0.8,0-1.5-0.7-1.5-1.5l0,0c0-0.8,0.7-1.5,1.5-1.5h46c0.8,0,1.5,0.7,1.5,1.5l0,0
		C377.6,160,377,160.7,376.1,160.7z"/>
	<path class="st1" d="M368.1,174.2h-45.5c-2.8,0-5-2.2-5-5l0,0c0-2.8,2.2-5,5-5h45.5c2.8,0,5,2.2,5,5v0
		C373.1,172,370.9,174.2,368.1,174.2z"/>
	<path class="st2" d="M368.4,170.7h-46c-0.8,0-1.5-0.7-1.5-1.5l0,0c0-0.8,0.7-1.5,1.5-1.5h46c0.8,0,1.5,0.7,1.5,1.5l0,0
		C369.9,170,369.2,170.7,368.4,170.7z"/>
	<path class="st1" d="M380.7,184.4h-45.5c-2.8,0-5-2.2-5-5v0c0-2.8,2.2-5,5-5h45.5c2.8,0,5,2.2,5,5l0,0
		C385.7,182.2,383.4,184.4,380.7,184.4z"/>
	<path class="st2" d="M380.9,180.9h-46c-0.8,0-1.5-0.7-1.5-1.5v0c0-0.8,0.7-1.5,1.5-1.5h46c0.8,0,1.5,0.7,1.5,1.5v0
		C382.4,180.2,381.7,180.9,380.9,180.9z"/>
	<path class="st1" d="M218.6,320.3h-45.5c-2.8,0-5-2.2-5-5l0,0c0-2.8,2.2-5,5-5h45.5c2.8,0,5,2.2,5,5l0,0
		C223.6,318.1,221.4,320.3,218.6,320.3z"/>
	<path class="st2" d="M218.9,316.8h-46c-0.8,0-1.5-0.7-1.5-1.5l0,0c0-0.8,0.7-1.5,1.5-1.5h46c0.8,0,1.5,0.7,1.5,1.5l0,0
		C220.4,316.1,219.7,316.8,218.9,316.8z"/>
	<path class="st1" d="M800.1,411.6h-45.5c-2.8,0-5-2.2-5-5l0,0c0-2.8,2.2-5,5-5h45.5c2.8,0,5,2.2,5,5l0,0
		C805.1,409.3,802.8,411.6,800.1,411.6z"/>
	<path class="st2" d="M800.3,408.1h-46c-0.8,0-1.5-0.7-1.5-1.5l0,0c0-0.8,0.7-1.5,1.5-1.5h46c0.8,0,1.5,0.7,1.5,1.5l0,0
		C801.8,407.4,801.2,408.1,800.3,408.1z"/>
	<path class="st1" d="M873.6,184.5h-45.5c-2.8,0-5-2.2-5-5v0c0-2.8,2.2-5,5-5h45.5c2.8,0,5,2.2,5,5v0
		C878.6,182.3,876.3,184.5,873.6,184.5z"/>
	<path class="st2" d="M873.8,181h-46c-0.8,0-1.5-0.7-1.5-1.5l0,0c0-0.8,0.7-1.5,1.5-1.5h46c0.8,0,1.5,0.7,1.5,1.5l0,0
		C875.3,180.3,874.7,181,873.8,181z"/>
	<path class="st1" d="M916.5,231.5H871c-2.8,0-5-2.2-5-5v0c0-2.8,2.2-5,5-5h45.5c2.8,0,5,2.2,5,5l0,0
		C921.5,229.2,919.2,231.5,916.5,231.5z"/>
	<path class="st2" d="M916.7,228h-46c-0.8,0-1.5-0.7-1.5-1.5l0,0c0-0.8,0.7-1.5,1.5-1.5h46c0.8,0,1.5,0.7,1.5,1.5v0
		C918.2,227.3,917.6,228,916.7,228z"/>
	<path class="st1" d="M1204.1,351.4h-45.5c-2.8,0-5-2.2-5-5v0c0-2.8,2.2-5,5-5h45.5c2.8,0,5,2.2,5,5l0,0
		C1209.1,349.2,1206.9,351.4,1204.1,351.4z"/>
	<path class="st2" d="M1204.4,347.9h-46c-0.8,0-1.5-0.7-1.5-1.5l0,0c0-0.8,0.7-1.5,1.5-1.5h46c0.8,0,1.5,0.7,1.5,1.5l0,0
		C1205.9,347.3,1205.2,347.9,1204.4,347.9z"/>
	<path class="st1" d="M1882.1,187.2h-45.5c-2.8,0-5-2.2-5-5v0c0-2.8,2.2-5,5-5h45.5c2.8,0,5,2.2,5,5v0
		C1887.1,185,1884.8,187.2,1882.1,187.2z"/>
	<path class="st2" d="M1882.3,183.7h-46c-0.8,0-1.5-0.7-1.5-1.5l0,0c0-0.8,0.7-1.5,1.5-1.5h46c0.8,0,1.5,0.7,1.5,1.5l0,0
		C1883.8,183.1,1883.2,183.7,1882.3,183.7z"/>
	<path class="st1" d="M1676.1,753h-45.5c-2.8,0-5-2.2-5-5l0,0c0-2.8,2.2-5,5-5h45.5c2.8,0,5,2.2,5,5v0
		C1681.1,750.7,1678.8,753,1676.1,753z"/>
	<path class="st2" d="M1676.3,749.5h-46c-0.8,0-1.5-0.7-1.5-1.5l0,0c0-0.8,0.7-1.5,1.5-1.5h46c0.8,0,1.5,0.7,1.5,1.5l0,0
		C1677.8,748.8,1677.2,749.5,1676.3,749.5z"/>
	<path class="st1" d="M1123.8,758.6h-45.5c-2.8,0-5-2.2-5-5l0,0c0-2.8,2.2-5,5-5h45.5c2.8,0,5,2.2,5,5l0,0
		C1128.8,756.3,1126.5,758.6,1123.8,758.6z"/>
	<path class="st2" d="M1124,755.1h-46c-0.8,0-1.5-0.7-1.5-1.5l0,0c0-0.8,0.7-1.5,1.5-1.5h46c0.8,0,1.5,0.7,1.5,1.5l0,0
		C1125.5,754.4,1124.9,755.1,1124,755.1z"/>
	<path class="st1" d="M1005.6,614.1h-45.5c-2.8,0-5-2.2-5-5v0c0-2.8,2.2-5,5-5h45.5c2.8,0,5,2.2,5,5v0
		C1010.6,611.8,1008.3,614.1,1005.6,614.1z"/>
	<path class="st2" d="M1005.8,610.6h-46c-0.8,0-1.5-0.7-1.5-1.5l0,0c0-0.8,0.7-1.5,1.5-1.5h46c0.8,0,1.5,0.7,1.5,1.5l0,0
		C1007.3,609.9,1006.6,610.6,1005.8,610.6z"/>
	<path class="st1" d="M590.2,619.6h-45.5c-2.8,0-5-2.2-5-5l0,0c0-2.8,2.2-5,5-5h45.5c2.8,0,5,2.2,5,5l0,0
		C595.2,617.4,593,619.6,590.2,619.6z"/>
	<path class="st2" d="M590.5,616.1h-46c-0.8,0-1.5-0.7-1.5-1.5l0,0c0-0.8,0.7-1.5,1.5-1.5h46c0.8,0,1.5,0.7,1.5,1.5l0,0
		C592,615.5,591.3,616.1,590.5,616.1z"/>
	<path class="st1" d="M86.6,1030.8H41.1c-2.8,0-5-2.2-5-5l0,0c0-2.8,2.2-5,5-5h45.5c2.8,0,5,2.2,5,5l0,0
		C91.6,1028.6,89.3,1030.8,86.6,1030.8z"/>
	<path class="st2" d="M86.8,1027.3h-46c-0.8,0-1.5-0.7-1.5-1.5l0,0c0-0.8,0.7-1.5,1.5-1.5h46c0.8,0,1.5,0.7,1.5,1.5l0,0
		C88.3,1026.6,87.7,1027.3,86.8,1027.3z"/>
	<path class="st1" d="M653,948.2h-45.5c-2.8,0-5-2.2-5-5l0,0c0-2.8,2.2-5,5-5H653c2.8,0,5,2.2,5,5l0,0
		C658,946,655.8,948.2,653,948.2z"/>
	<path class="st2" d="M653.2,944.7h-46c-0.8,0-1.5-0.7-1.5-1.5l0,0c0-0.8,0.7-1.5,1.5-1.5h46c0.8,0,1.5,0.7,1.5,1.5l0,0
		C654.7,944.1,654.1,944.7,653.2,944.7z"/>
	<path class="st1" d="M1381,953.3h-45.5c-2.8,0-5-2.2-5-5l0,0c0-2.8,2.2-5,5-5h45.5c2.8,0,5,2.2,5,5l0,0
		C1386,951.1,1383.7,953.3,1381,953.3z"/>
	<path class="st2" d="M1381.2,949.8h-46c-0.8,0-1.5-0.7-1.5-1.5l0,0c0-0.8,0.7-1.5,1.5-1.5h46c0.8,0,1.5,0.7,1.5,1.5l0,0
		C1382.7,949.2,1382.1,949.8,1381.2,949.8z"/>
	<path class="st1" d="M677,1174.9h-45.5c-2.8,0-5-2.2-5-5l0,0c0-2.8,2.2-5,5-5H677c2.8,0,5,2.2,5,5l0,0
		C682,1172.7,679.7,1174.9,677,1174.9z"/>
	<path class="st2" d="M677.2,1171.4h-46c-0.8,0-1.5-0.7-1.5-1.5l0,0c0-0.8,0.7-1.5,1.5-1.5h46c0.8,0,1.5,0.7,1.5,1.5l0,0
		C678.7,1170.8,678.1,1171.4,677.2,1171.4z"/>
	<path class="st1" d="M545.3,1356.2h-45.5c-2.8,0-5-2.2-5-5l0,0c0-2.8,2.2-5,5-5h45.5c2.8,0,5,2.2,5,5l0,0
		C550.3,1353.9,548.1,1356.2,545.3,1356.2z"/>
	<path class="st2" d="M545.6,1352.7h-46c-0.8,0-1.5-0.7-1.5-1.5l0,0c0-0.8,0.7-1.5,1.5-1.5h46c0.8,0,1.5,0.7,1.5,1.5l0,0
		C547.1,1352,546.4,1352.7,545.6,1352.7z"/>
	<path class="st1" d="M267.1,1508.7h-45.5c-2.8,0-5-2.2-5-5l0,0c0-2.8,2.2-5,5-5h45.5c2.8,0,5,2.2,5,5l0,0
		C272.1,1506.4,269.8,1508.7,267.1,1508.7z"/>
	<path class="st2" d="M267.3,1505.2h-46c-0.8,0-1.5-0.7-1.5-1.5l0,0c0-0.8,0.7-1.5,1.5-1.5h46c0.8,0,1.5,0.7,1.5,1.5l0,0
		C268.8,1504.5,268.2,1505.2,267.3,1505.2z"/>
	<path class="st1" d="M545.4,1592.7h-45.5c-2.8,0-5-2.2-5-5l0,0c0-2.8,2.2-5,5-5h45.5c2.8,0,5,2.2,5,5l0,0
		C550.4,1590.5,548.2,1592.7,545.4,1592.7z"/>
	<path class="st2" d="M545.6,1589.2h-46c-0.8,0-1.5-0.7-1.5-1.5l0,0c0-0.8,0.7-1.5,1.5-1.5h46c0.8,0,1.5,0.7,1.5,1.5l0,0
		C547.1,1588.5,546.5,1589.2,545.6,1589.2z"/>
	<path class="st1" d="M1206.1,1508.5h-45.5c-2.8,0-5-2.2-5-5l0,0c0-2.8,2.2-5,5-5h45.5c2.8,0,5,2.2,5,5l0,0
		C1211.1,1506.2,1208.9,1508.5,1206.1,1508.5z"/>
	<path class="st2" d="M1206.4,1505h-46c-0.8,0-1.5-0.7-1.5-1.5l0,0c0-0.8,0.7-1.5,1.5-1.5h46c0.8,0,1.5,0.7,1.5,1.5l0,0
		C1207.9,1504.3,1207.2,1505,1206.4,1505z"/>
	<path class="st1" d="M1017.4,1613.4h-45.5c-2.8,0-5-2.2-5-5l0,0c0-2.8,2.2-5,5-5h45.5c2.8,0,5,2.2,5,5l0,0
		C1022.4,1611.2,1020.2,1613.4,1017.4,1613.4z"/>
	<path class="st2" d="M1017.7,1609.9h-46c-0.8,0-1.5-0.7-1.5-1.5l0,0c0-0.8,0.7-1.5,1.5-1.5h46c0.8,0,1.5,0.7,1.5,1.5l0,0
		C1019.2,1609.2,1018.5,1609.9,1017.7,1609.9z"/>
	<path class="st1" d="M918.4,1639.3h-45.5c-2.8,0-5-2.2-5-5l0,0c0-2.8,2.2-5,5-5h45.5c2.8,0,5,2.2,5,5l0,0
		C923.4,1637.1,921.2,1639.3,918.4,1639.3z"/>
	<path class="st2" d="M918.7,1635.8h-46c-0.8,0-1.5-0.7-1.5-1.5l0,0c0-0.8,0.7-1.5,1.5-1.5h46c0.8,0,1.5,0.7,1.5,1.5l0,0
		C920.2,1635.1,919.5,1635.8,918.7,1635.8z"/>
	<path class="st1" d="M530.5,1772.6H485c-2.8,0-5-2.2-5-5l0,0c0-2.8,2.2-5,5-5h45.5c2.8,0,5,2.2,5,5l0,0
		C535.5,1770.3,533.3,1772.6,530.5,1772.6z"/>
	<path class="st2" d="M530.7,1769.1h-46c-0.8,0-1.5-0.7-1.5-1.5l0,0c0-0.8,0.7-1.5,1.5-1.5h46c0.8,0,1.5,0.7,1.5,1.5l0,0
		C532.2,1768.4,531.6,1769.1,530.7,1769.1z"/>
	<path class="st1" d="M1559.4,86.5h-45.5c-2.8,0-5-2.2-5-5v0c0-2.8,2.2-5,5-5h45.5c2.8,0,5,2.2,5,5v0
		C1564.4,84.3,1562.2,86.5,1559.4,86.5z"/>
	<path class="st2" d="M1559.7,83h-46c-0.8,0-1.5-0.7-1.5-1.5l0,0c0-0.8,0.7-1.5,1.5-1.5h46c0.8,0,1.5,0.7,1.5,1.5v0
		C1561.2,82.3,1560.5,83,1559.7,83z"/>
	<path class="st1" d="M1551.7,96.5h-45.5c-2.8,0-5-2.2-5-5v0c0-2.8,2.2-5,5-5h45.5c2.8,0,5,2.2,5,5v0
		C1556.7,94.3,1554.4,96.5,1551.7,96.5z"/>
	<path class="st2" d="M1551.9,93h-46c-0.8,0-1.5-0.7-1.5-1.5l0,0c0-0.8,0.7-1.5,1.5-1.5h46c0.8,0,1.5,0.7,1.5,1.5v0
		C1553.4,92.3,1552.8,93,1551.9,93z"/>
	<path class="st1" d="M1564.2,106.7h-45.5c-2.8,0-5-2.2-5-5v0c0-2.8,2.2-5,5-5h45.5c2.8,0,5,2.2,5,5v0
		C1569.2,104.5,1567,106.7,1564.2,106.7z"/>
	<path class="st2" d="M1564.5,103.2h-46c-0.8,0-1.5-0.7-1.5-1.5l0,0c0-0.8,0.7-1.5,1.5-1.5h46c0.8,0,1.5,0.7,1.5,1.5l0,0
		C1566,102.5,1565.3,103.2,1564.5,103.2z"/>
	<path class="st1" d="M1522.8,394.3h-45.5c-2.8,0-5-2.2-5-5v0c0-2.8,2.2-5,5-5h45.5c2.8,0,5,2.2,5,5l0,0
		C1527.8,392,1525.5,394.3,1522.8,394.3z"/>
	<path class="st2" d="M1523,390.8h-46c-0.8,0-1.5-0.7-1.5-1.5l0,0c0-0.8,0.7-1.5,1.5-1.5h46c0.8,0,1.5,0.7,1.5,1.5l0,0
		C1524.5,390.1,1523.9,390.8,1523,390.8z"/>
	<path class="st1" d="M1515.1,404.3h-45.5c-2.8,0-5-2.2-5-5v0c0-2.8,2.2-5,5-5h45.5c2.8,0,5,2.2,5,5l0,0
		C1520.1,402,1517.8,404.3,1515.1,404.3z"/>
	<path class="st2" d="M1515.3,400.8h-46c-0.8,0-1.5-0.7-1.5-1.5l0,0c0-0.8,0.7-1.5,1.5-1.5h46c0.8,0,1.5,0.7,1.5,1.5l0,0
		C1516.8,400.1,1516.1,400.8,1515.3,400.8z"/>
	<path class="st1" d="M1527.6,414.5h-45.5c-2.8,0-5-2.2-5-5l0,0c0-2.8,2.2-5,5-5h45.5c2.8,0,5,2.2,5,5l0,0
		C1532.6,412.2,1530.3,414.5,1527.6,414.5z"/>
	<path class="st2" d="M1527.8,411h-46c-0.8,0-1.5-0.7-1.5-1.5l0,0c0-0.8,0.7-1.5,1.5-1.5h46c0.8,0,1.5,0.7,1.5,1.5l0,0
		C1529.3,410.3,1528.7,411,1527.8,411z"/>
	<path class="st1" d="M1209.5,616.9H1164c-2.8,0-5-2.2-5-5l0,0c0-2.8,2.2-5,5-5h45.5c2.8,0,5,2.2,5,5l0,0
		C1214.5,614.6,1212.3,616.9,1209.5,616.9z"/>
	<path class="st2" d="M1209.8,613.4h-46c-0.8,0-1.5-0.7-1.5-1.5l0,0c0-0.8,0.7-1.5,1.5-1.5h46c0.8,0,1.5,0.7,1.5,1.5l0,0
		C1211.3,612.7,1210.6,613.4,1209.8,613.4z"/>
	<path class="st1" d="M1201.8,626.9h-45.5c-2.8,0-5-2.2-5-5l0,0c0-2.8,2.2-5,5-5h45.5c2.8,0,5,2.2,5,5l0,0
		C1206.8,624.6,1204.6,626.9,1201.8,626.9z"/>
	<path class="st2" d="M1202.1,623.4h-46c-0.8,0-1.5-0.7-1.5-1.5l0,0c0-0.8,0.7-1.5,1.5-1.5h46c0.8,0,1.5,0.7,1.5,1.5l0,0
		C1203.6,622.7,1202.9,623.4,1202.1,623.4z"/>
	<path class="st1" d="M1214.3,637.1h-45.5c-2.8,0-5-2.2-5-5v0c0-2.8,2.2-5,5-5h45.5c2.8,0,5,2.2,5,5v0
		C1219.3,634.8,1217.1,637.1,1214.3,637.1z"/>
	<path class="st2" d="M1214.6,633.6h-46c-0.8,0-1.5-0.7-1.5-1.5l0,0c0-0.8,0.7-1.5,1.5-1.5h46c0.8,0,1.5,0.7,1.5,1.5l0,0
		C1216.1,632.9,1215.4,633.6,1214.6,633.6z"/>
	<path class="st1" d="M1885.1,591.6h-45.5c-2.8,0-5-2.2-5-5l0,0c0-2.8,2.2-5,5-5h45.5c2.8,0,5,2.2,5,5l0,0
		C1890.1,589.4,1887.9,591.6,1885.1,591.6z"/>
	<path class="st2" d="M1885.4,588.1h-46c-0.8,0-1.5-0.7-1.5-1.5l0,0c0-0.8,0.7-1.5,1.5-1.5h46c0.8,0,1.5,0.7,1.5,1.5l0,0
		C1886.9,587.4,1886.2,588.1,1885.4,588.1z"/>
	<path class="st1" d="M1877.4,601.6h-45.5c-2.8,0-5-2.2-5-5l0,0c0-2.8,2.2-5,5-5h45.5c2.8,0,5,2.2,5,5l0,0
		C1882.4,599.4,1880.1,601.6,1877.4,601.6z"/>
	<path class="st2" d="M1877.6,598.1h-46c-0.8,0-1.5-0.7-1.5-1.5l0,0c0-0.8,0.7-1.5,1.5-1.5h46c0.8,0,1.5,0.7,1.5,1.5l0,0
		C1879.1,597.4,1878.5,598.1,1877.6,598.1z"/>
	<path class="st1" d="M1889.9,611.8h-45.5c-2.8,0-5-2.2-5-5l0,0c0-2.8,2.2-5,5-5h45.5c2.8,0,5,2.2,5,5l0,0
		C1894.9,609.6,1892.7,611.8,1889.9,611.8z"/>
	<path class="st2" d="M1890.2,608.3h-46c-0.8,0-1.5-0.7-1.5-1.5l0,0c0-0.8,0.7-1.5,1.5-1.5h46c0.8,0,1.5,0.7,1.5,1.5l0,0
		C1891.7,607.6,1891,608.3,1890.2,608.3z"/>
	<path class="st1" d="M338.6,783.7h-45.5c-2.8,0-5-2.2-5-5l0,0c0-2.8,2.2-5,5-5h45.5c2.8,0,5,2.2,5,5l0,0
		C343.6,781.5,341.4,783.7,338.6,783.7z"/>
	<path class="st2" d="M338.9,780.2h-46c-0.8,0-1.5-0.7-1.5-1.5l0,0c0-0.8,0.7-1.5,1.5-1.5h46c0.8,0,1.5,0.7,1.5,1.5l0,0
		C340.4,779.5,339.7,780.2,338.9,780.2z"/>
	<path class="st1" d="M330.9,793.7h-45.5c-2.8,0-5-2.2-5-5l0,0c0-2.8,2.2-5,5-5h45.5c2.8,0,5,2.2,5,5l0,0
		C335.9,791.5,333.6,793.7,330.9,793.7z"/>
	<path class="st2" d="M331.1,790.2h-46c-0.8,0-1.5-0.7-1.5-1.5l0,0c0-0.8,0.7-1.5,1.5-1.5h46c0.8,0,1.5,0.7,1.5,1.5l0,0
		C332.6,789.5,332,790.2,331.1,790.2z"/>
	<path class="st1" d="M343.4,803.9h-45.5c-2.8,0-5-2.2-5-5v0c0-2.8,2.2-5,5-5h45.5c2.8,0,5,2.2,5,5v0
		C348.4,801.7,346.2,803.9,343.4,803.9z"/>
	<path class="st2" d="M343.7,800.4h-46c-0.8,0-1.5-0.7-1.5-1.5l0,0c0-0.8,0.7-1.5,1.5-1.5h46c0.8,0,1.5,0.7,1.5,1.5l0,0
		C345.2,799.8,344.5,800.4,343.7,800.4z"/>
	<path class="st1" d="M347.3,1094.1h-45.5c-2.8,0-5-2.2-5-5l0,0c0-2.8,2.2-5,5-5h45.5c2.8,0,5,2.2,5,5l0,0
		C352.3,1091.8,350.1,1094.1,347.3,1094.1z"/>
	<path class="st2" d="M347.5,1090.6h-46c-0.8,0-1.5-0.7-1.5-1.5l0,0c0-0.8,0.7-1.5,1.5-1.5h46c0.8,0,1.5,0.7,1.5,1.5l0,0
		C349,1089.9,348.4,1090.6,347.5,1090.6z"/>
	<path class="st1" d="M339.6,1104.1h-45.5c-2.8,0-5-2.2-5-5l0,0c0-2.8,2.2-5,5-5h45.5c2.8,0,5,2.2,5,5l0,0
		C344.6,1101.8,342.3,1104.1,339.6,1104.1z"/>
	<path class="st2" d="M339.8,1100.6h-46c-0.8,0-1.5-0.7-1.5-1.5l0,0c0-0.8,0.7-1.5,1.5-1.5h46c0.8,0,1.5,0.7,1.5,1.5l0,0
		C341.3,1099.9,340.6,1100.6,339.8,1100.6z"/>
	<path class="st1" d="M352.1,1114.3h-45.5c-2.8,0-5-2.2-5-5l0,0c0-2.8,2.2-5,5-5h45.5c2.8,0,5,2.2,5,5l0,0
		C357.1,1112,354.8,1114.3,352.1,1114.3z"/>
	<path class="st2" d="M352.3,1110.8h-46c-0.8,0-1.5-0.7-1.5-1.5l0,0c0-0.8,0.7-1.5,1.5-1.5h46c0.8,0,1.5,0.7,1.5,1.5l0,0
		C353.8,1110.1,353.2,1110.8,352.3,1110.8z"/>
	<path class="st1" d="M1301.8,1256.1h-45.5c-2.8,0-5-2.2-5-5l0,0c0-2.8,2.2-5,5-5h45.5c2.8,0,5,2.2,5,5l0,0
		C1306.8,1253.8,1304.6,1256.1,1301.8,1256.1z"/>
	<path class="st2" d="M1302.1,1252.6h-46c-0.8,0-1.5-0.7-1.5-1.5l0,0c0-0.8,0.7-1.5,1.5-1.5h46c0.8,0,1.5,0.7,1.5,1.5l0,0
		C1303.6,1251.9,1302.9,1252.6,1302.1,1252.6z"/>
	<path class="st1" d="M1294.1,1266.1h-45.5c-2.8,0-5-2.2-5-5l0,0c0-2.8,2.2-5,5-5h45.5c2.8,0,5,2.2,5,5l0,0
		C1299.1,1263.8,1296.8,1266.1,1294.1,1266.1z"/>
	<path class="st2" d="M1294.3,1262.6h-46c-0.8,0-1.5-0.7-1.5-1.5l0,0c0-0.8,0.7-1.5,1.5-1.5h46c0.8,0,1.5,0.7,1.5,1.5l0,0
		C1295.8,1261.9,1295.2,1262.6,1294.3,1262.6z"/>
	<path class="st1" d="M1306.6,1276.3h-45.5c-2.8,0-5-2.2-5-5l0,0c0-2.8,2.2-5,5-5h45.5c2.8,0,5,2.2,5,5l0,0
		C1311.6,1274,1309.4,1276.3,1306.6,1276.3z"/>
	<path class="st2" d="M1306.9,1272.8h-46c-0.8,0-1.5-0.7-1.5-1.5l0,0c0-0.8,0.7-1.5,1.5-1.5h46c0.8,0,1.5,0.7,1.5,1.5l0,0
		C1308.4,1272.1,1307.7,1272.8,1306.9,1272.8z"/>
	<path class="st1" d="M653.5,91.6H608c-2.8,0-5-2.2-5-5v0c0-2.8,2.2-5,5-5h45.5c2.8,0,5,2.2,5,5v0C658.5,89.4,656.2,91.6,653.5,91.6
		z"/>
	<path class="st2" d="M653.7,88.1h-46c-0.8,0-1.5-0.7-1.5-1.5v0c0-0.8,0.7-1.5,1.5-1.5h46c0.8,0,1.5,0.7,1.5,1.5l0,0
		C655.2,87.4,654.5,88.1,653.7,88.1z"/>
	<path class="st1" d="M666,101.6h-45.5c-2.8,0-5-2.2-5-5v0c0-2.8,2.2-5,5-5H666c2.8,0,5,2.2,5,5v0C671,99.4,668.7,101.6,666,101.6z"
		/>
	<path class="st2" d="M666.2,98.1h-46c-0.8,0-1.5-0.7-1.5-1.5v0c0-0.8,0.7-1.5,1.5-1.5h46c0.8,0,1.5,0.7,1.5,1.5l0,0
		C667.7,97.4,667.1,98.1,666.2,98.1z"/>
	<path class="st1" d="M1108.6,277.7h-45.5c-2.8,0-5-2.2-5-5l0,0c0-2.8,2.2-5,5-5h45.5c2.8,0,5,2.2,5,5l0,0
		C1113.6,275.5,1111.3,277.7,1108.6,277.7z"/>
	<path class="st2" d="M1108.8,274.2h-46c-0.8,0-1.5-0.7-1.5-1.5l0,0c0-0.8,0.7-1.5,1.5-1.5h46c0.8,0,1.5,0.7,1.5,1.5l0,0
		C1110.3,273.5,1109.6,274.2,1108.8,274.2z"/>
	<path class="st1" d="M1108.6,287.7h-45.5c-2.8,0-5-2.2-5-5l0,0c0-2.8,2.2-5,5-5h45.5c2.8,0,5,2.2,5,5l0,0
		C1113.6,285.5,1111.3,287.7,1108.6,287.7z"/>
	<path class="st2" d="M1108.8,284.2h-46c-0.8,0-1.5-0.7-1.5-1.5l0,0c0-0.8,0.7-1.5,1.5-1.5h46c0.8,0,1.5,0.7,1.5,1.5l0,0
		C1110.3,283.5,1109.6,284.2,1108.8,284.2z"/>
	<path class="st1" d="M1381.5,216.9H1336c-2.8,0-5-2.2-5-5v0c0-2.8,2.2-5,5-5h45.5c2.8,0,5,2.2,5,5l0,0
		C1386.5,214.7,1384.3,216.9,1381.5,216.9z"/>
	<path class="st2" d="M1381.8,213.4h-46c-0.8,0-1.5-0.7-1.5-1.5l0,0c0-0.8,0.7-1.5,1.5-1.5h46c0.8,0,1.5,0.7,1.5,1.5v0
		C1383.3,212.7,1382.6,213.4,1381.8,213.4z"/>
	<path class="st1" d="M1394,226.9h-45.5c-2.8,0-5-2.2-5-5v0c0-2.8,2.2-5,5-5h45.5c2.8,0,5,2.2,5,5l0,0
		C1399,224.7,1396.8,226.9,1394,226.9z"/>
	<path class="st2" d="M1394.3,223.4h-46c-0.8,0-1.5-0.7-1.5-1.5l0,0c0-0.8,0.7-1.5,1.5-1.5h46c0.8,0,1.5,0.7,1.5,1.5v0
		C1395.8,222.7,1395.1,223.4,1394.3,223.4z"/>
	<path class="st1" d="M521.9,384.9h-45.5c-2.8,0-5-2.2-5-5v0c0-2.8,2.2-5,5-5h45.5c2.8,0,5,2.2,5,5l0,0
		C526.9,382.7,524.7,384.9,521.9,384.9z"/>
	<path class="st2" d="M522.2,381.4h-46c-0.8,0-1.5-0.7-1.5-1.5l0,0c0-0.8,0.7-1.5,1.5-1.5h46c0.8,0,1.5,0.7,1.5,1.5l0,0
		C523.7,380.7,523,381.4,522.2,381.4z"/>
	<path class="st1" d="M521.9,394.9h-45.5c-2.8,0-5-2.2-5-5v0c0-2.8,2.2-5,5-5h45.5c2.8,0,5,2.2,5,5l0,0
		C526.9,392.7,524.7,394.9,521.9,394.9z"/>
	<path class="st2" d="M522.2,391.4h-46c-0.8,0-1.5-0.7-1.5-1.5l0,0c0-0.8,0.7-1.5,1.5-1.5h46c0.8,0,1.5,0.7,1.5,1.5l0,0
		C523.7,390.7,523,391.4,522.2,391.4z"/>
	<path class="st1" d="M1946.4,377.5h-45.5c-2.8,0-5-2.2-5-5v0c0-2.8,2.2-5,5-5h45.5c2.8,0,5,2.2,5,5l0,0
		C1951.4,375.2,1949.2,377.5,1946.4,377.5z"/>
	<path class="st2" d="M1946.7,374h-46c-0.8,0-1.5-0.7-1.5-1.5l0,0c0-0.8,0.7-1.5,1.5-1.5h46c0.8,0,1.5,0.7,1.5,1.5l0,0
		C1948.2,373.3,1947.5,374,1946.7,374z"/>
	<path class="st1" d="M1958.9,387.5h-45.5c-2.8,0-5-2.2-5-5v0c0-2.8,2.2-5,5-5h45.5c2.8,0,5,2.2,5,5l0,0
		C1963.9,385.2,1961.7,387.5,1958.9,387.5z"/>
	<path class="st2" d="M1959.2,384h-46c-0.8,0-1.5-0.7-1.5-1.5l0,0c0-0.8,0.7-1.5,1.5-1.5h46c0.8,0,1.5,0.7,1.5,1.5l0,0
		C1960.7,383.3,1960,384,1959.2,384z"/>
	<path class="st1" d="M1426.5,601.6H1381c-2.8,0-5-2.2-5-5l0,0c0-2.8,2.2-5,5-5h45.5c2.8,0,5,2.2,5,5l0,0
		C1431.5,599.4,1429.3,601.6,1426.5,601.6z"/>
	<path class="st2" d="M1426.7,598.1h-46c-0.8,0-1.5-0.7-1.5-1.5l0,0c0-0.8,0.7-1.5,1.5-1.5h46c0.8,0,1.5,0.7,1.5,1.5l0,0
		C1428.2,597.4,1427.6,598.1,1426.7,598.1z"/>
	<path class="st1" d="M1439,611.6h-45.5c-2.8,0-5-2.2-5-5l0,0c0-2.8,2.2-5,5-5h45.5c2.8,0,5,2.2,5,5l0,0
		C1444,609.4,1441.8,611.6,1439,611.6z"/>
	<path class="st2" d="M1439.3,608.1h-46c-0.8,0-1.5-0.7-1.5-1.5l0,0c0-0.8,0.7-1.5,1.5-1.5h46c0.8,0,1.5,0.7,1.5,1.5l0,0
		C1440.8,607.4,1440.1,608.1,1439.3,608.1z"/>
	<path class="st1" d="M966.3,977.7h-45.5c-2.8,0-5-2.2-5-5v0c0-2.8,2.2-5,5-5h45.5c2.8,0,5,2.2,5,5v0
		C971.3,975.4,969,977.7,966.3,977.7z"/>
	<path class="st2" d="M966.5,974.2h-46c-0.8,0-1.5-0.7-1.5-1.5l0,0c0-0.8,0.7-1.5,1.5-1.5h46c0.8,0,1.5,0.7,1.5,1.5l0,0
		C968,973.5,967.3,974.2,966.5,974.2z"/>
	<path class="st1" d="M966.3,987.7h-45.5c-2.8,0-5-2.2-5-5v0c0-2.8,2.2-5,5-5h45.5c2.8,0,5,2.2,5,5v0
		C971.3,985.4,969,987.7,966.3,987.7z"/>
	<path class="st2" d="M966.5,984.2h-46c-0.8,0-1.5-0.7-1.5-1.5l0,0c0-0.8,0.7-1.5,1.5-1.5h46c0.8,0,1.5,0.7,1.5,1.5l0,0
		C968,983.5,967.3,984.2,966.5,984.2z"/>
	<path class="st1" d="M1269.6,977.7h-45.5c-2.8,0-5-2.2-5-5l0,0c0-2.8,2.2-5,5-5h45.5c2.8,0,5,2.2,5,5l0,0
		C1274.6,975.5,1272.3,977.7,1269.6,977.7z"/>
	<path class="st2" d="M1269.8,974.2h-46c-0.8,0-1.5-0.7-1.5-1.5l0,0c0-0.8,0.7-1.5,1.5-1.5h46c0.8,0,1.5,0.7,1.5,1.5l0,0
		C1271.3,973.6,1270.7,974.2,1269.8,974.2z"/>
	<path class="st1" d="M1269.6,987.7h-45.5c-2.8,0-5-2.2-5-5l0,0c0-2.8,2.2-5,5-5h45.5c2.8,0,5,2.2,5,5l0,0
		C1274.6,985.5,1272.3,987.7,1269.6,987.7z"/>
	<path class="st2" d="M1269.8,984.2h-46c-0.8,0-1.5-0.7-1.5-1.5l0,0c0-0.8,0.7-1.5,1.5-1.5h46c0.8,0,1.5,0.7,1.5,1.5l0,0
		C1271.3,983.6,1270.7,984.2,1269.8,984.2z"/>
	<path class="st1" d="M882.5,1225.4H837c-2.8,0-5-2.2-5-5v0c0-2.8,2.2-5,5-5h45.5c2.8,0,5,2.2,5,5v0
		C887.5,1223.1,885.2,1225.4,882.5,1225.4z"/>
	<path class="st2" d="M882.7,1221.9h-46c-0.8,0-1.5-0.7-1.5-1.5l0,0c0-0.8,0.7-1.5,1.5-1.5h46c0.8,0,1.5,0.7,1.5,1.5l0,0
		C884.2,1221.2,883.6,1221.9,882.7,1221.9z"/>
	<path class="st1" d="M895,1235.4h-45.5c-2.8,0-5-2.2-5-5v0c0-2.8,2.2-5,5-5H895c2.8,0,5,2.2,5,5v0
		C900,1233.1,897.8,1235.4,895,1235.4z"/>
	<path class="st2" d="M895.2,1231.9h-46c-0.8,0-1.5-0.7-1.5-1.5l0,0c0-0.8,0.7-1.5,1.5-1.5h46c0.8,0,1.5,0.7,1.5,1.5l0,0
		C896.7,1231.2,896.1,1231.9,895.2,1231.9z"/>
	<path class="st1" d="M1722.3,1201.3h-45.5c-2.8,0-5-2.2-5-5l0,0c0-2.8,2.2-5,5-5h45.5c2.8,0,5,2.2,5,5l0,0
		C1727.3,1199.1,1725,1201.3,1722.3,1201.3z"/>
	<path class="st2" d="M1722.5,1197.8h-46c-0.8,0-1.5-0.7-1.5-1.5l0,0c0-0.8,0.7-1.5,1.5-1.5h46c0.8,0,1.5,0.7,1.5,1.5l0,0
		C1724,1197.1,1723.4,1197.8,1722.5,1197.8z"/>
	<path class="st1" d="M1722.3,1211.3h-45.5c-2.8,0-5-2.2-5-5l0,0c0-2.8,2.2-5,5-5h45.5c2.8,0,5,2.2,5,5l0,0
		C1727.3,1209.1,1725,1211.3,1722.3,1211.3z"/>
	<path class="st2" d="M1722.5,1207.8h-46c-0.8,0-1.5-0.7-1.5-1.5l0,0c0-0.8,0.7-1.5,1.5-1.5h46c0.8,0,1.5,0.7,1.5,1.5l0,0
		C1724,1207.1,1723.4,1207.8,1722.5,1207.8z"/>
	<path class="st1" d="M774.3,1628.4h-45.5c-2.8,0-5-2.2-5-5l0,0c0-2.8,2.2-5,5-5h45.5c2.8,0,5,2.2,5,5l0,0
		C779.3,1626.1,777.1,1628.4,774.3,1628.4z"/>
	<path class="st2" d="M774.6,1624.9h-46c-0.8,0-1.5-0.7-1.5-1.5l0,0c0-0.8,0.7-1.5,1.5-1.5h46c0.8,0,1.5,0.7,1.5,1.5l0,0
		C776.1,1624.2,775.4,1624.9,774.6,1624.9z"/>
	<path class="st1" d="M774.3,1638.4h-45.5c-2.8,0-5-2.2-5-5l0,0c0-2.8,2.2-5,5-5h45.5c2.8,0,5,2.2,5,5l0,0
		C779.3,1636.1,777.1,1638.4,774.3,1638.4z"/>
	<path class="st2" d="M774.6,1634.9h-46c-0.8,0-1.5-0.7-1.5-1.5l0,0c0-0.8,0.7-1.5,1.5-1.5h46c0.8,0,1.5,0.7,1.5,1.5l0,0
		C776.1,1634.2,775.4,1634.9,774.6,1634.9z"/>
	<path class="st1" d="M1583.3,1809.6h-45.5c-2.8,0-5-2.2-5-5l0,0c0-2.8,2.2-5,5-5h45.5c2.8,0,5,2.2,5,5l0,0
		C1588.3,1807.4,1586,1809.6,1583.3,1809.6z"/>
	<path class="st2" d="M1583.5,1806.1h-46c-0.8,0-1.5-0.7-1.5-1.5l0,0c0-0.8,0.7-1.5,1.5-1.5h46c0.8,0,1.5,0.7,1.5,1.5l0,0
		C1585,1805.5,1584.3,1806.1,1583.5,1806.1z"/>
	<path class="st1" d="M1595.8,1819.6h-45.5c-2.8,0-5-2.2-5-5l0,0c0-2.8,2.2-5,5-5h45.5c2.8,0,5,2.2,5,5l0,0
		C1600.8,1817.4,1598.5,1819.6,1595.8,1819.6z"/>
	<path class="st2" d="M1596,1816.1h-46c-0.8,0-1.5-0.7-1.5-1.5l0,0c0-0.8,0.7-1.5,1.5-1.5h46c0.8,0,1.5,0.7,1.5,1.5l0,0
		C1597.5,1815.5,1596.9,1816.1,1596,1816.1z"/>
	<path class="st1" d="M1252.2,1937.9h-45.5c-2.8,0-5-2.2-5-5l0,0c0-2.8,2.2-5,5-5h45.5c2.8,0,5,2.2,5,5l0,0
		C1257.2,1935.7,1255,1937.9,1252.2,1937.9z"/>
	<path class="st2" d="M1252.5,1934.4h-46c-0.8,0-1.5-0.7-1.5-1.5l0,0c0-0.8,0.7-1.5,1.5-1.5h46c0.8,0,1.5,0.7,1.5,1.5l0,0
		C1254,1933.7,1253.3,1934.4,1252.5,1934.4z"/>
	<path class="st1" d="M1264.7,1947.9h-45.5c-2.8,0-5-2.2-5-5l0,0c0-2.8,2.2-5,5-5h45.5c2.8,0,5,2.2,5,5l0,0
		C1269.7,1945.7,1267.5,1947.9,1264.7,1947.9z"/>
	<path class="st2" d="M1265,1944.4h-46c-0.8,0-1.5-0.7-1.5-1.5l0,0c0-0.8,0.7-1.5,1.5-1.5h46c0.8,0,1.5,0.7,1.5,1.5l0,0
		C1266.5,1943.7,1265.8,1944.4,1265,1944.4z"/>
	<path class="st1" d="M1498.3,1405.1h-45.5c-2.8,0-5-2.2-5-5l0,0c0-2.8,2.2-5,5-5h45.5c2.8,0,5,2.2,5,5l0,0
		C1503.3,1402.9,1501.1,1405.1,1498.3,1405.1z"/>
	<path class="st2" d="M1498.6,1401.6h-46c-0.8,0-1.5-0.7-1.5-1.5l0,0c0-0.8,0.7-1.5,1.5-1.5h46c0.8,0,1.5,0.7,1.5,1.5l0,0
		C1500.1,1400.9,1499.4,1401.6,1498.6,1401.6z"/>
	<path class="st1" d="M1498.3,1415.1h-45.5c-2.8,0-5-2.2-5-5l0,0c0-2.8,2.2-5,5-5h45.5c2.8,0,5,2.2,5,5l0,0
		C1503.3,1412.9,1501.1,1415.1,1498.3,1415.1z"/>
	<path class="st2" d="M1498.6,1411.6h-46c-0.8,0-1.5-0.7-1.5-1.5l0,0c0-0.8,0.7-1.5,1.5-1.5h46c0.8,0,1.5,0.7,1.5,1.5l0,0
		C1500.1,1410.9,1499.4,1411.6,1498.6,1411.6z"/>
	<path class="st1" d="M1739,1608.7h-45.5c-2.8,0-5-2.2-5-5l0,0c0-2.8,2.2-5,5-5h45.5c2.8,0,5,2.2,5,5l0,0
		C1744,1606.4,1741.8,1608.7,1739,1608.7z"/>
	<path class="st2" d="M1739.3,1605.2h-46c-0.8,0-1.5-0.7-1.5-1.5l0,0c0-0.8,0.7-1.5,1.5-1.5h46c0.8,0,1.5,0.7,1.5,1.5l0,0
		C1740.8,1604.5,1740.1,1605.2,1739.3,1605.2z"/>
	<path class="st1" d="M1739,1618.7h-45.5c-2.8,0-5-2.2-5-5l0,0c0-2.8,2.2-5,5-5h45.5c2.8,0,5,2.2,5,5l0,0
		C1744,1616.4,1741.8,1618.7,1739,1618.7z"/>
	<path class="st2" d="M1739.3,1615.2h-46c-0.8,0-1.5-0.7-1.5-1.5l0,0c0-0.8,0.7-1.5,1.5-1.5h46c0.8,0,1.5,0.7,1.5,1.5l0,0
		C1740.8,1614.5,1740.1,1615.2,1739.3,1615.2z"/>
	<path class="st1" d="M639,1748.8h-45.5c-2.8,0-5-2.2-5-5l0,0c0-2.8,2.2-5,5-5H639c2.8,0,5,2.2,5,5l0,0
		C644,1746.5,641.7,1748.8,639,1748.8z"/>
	<path class="st2" d="M639.2,1745.3h-46c-0.8,0-1.5-0.7-1.5-1.5l0,0c0-0.8,0.7-1.5,1.5-1.5h46c0.8,0,1.5,0.7,1.5,1.5l0,0
		C640.7,1744.6,640,1745.3,639.2,1745.3z"/>
	<path class="st1" d="M639,1758.8h-45.5c-2.8,0-5-2.2-5-5l0,0c0-2.8,2.2-5,5-5H639c2.8,0,5,2.2,5,5l0,0
		C644,1756.5,641.7,1758.8,639,1758.8z"/>
	<path class="st2" d="M639.2,1755.3h-46c-0.8,0-1.5-0.7-1.5-1.5l0,0c0-0.8,0.7-1.5,1.5-1.5h46c0.8,0,1.5,0.7,1.5,1.5l0,0
		C640.7,1754.6,640,1755.3,639.2,1755.3z"/>
	<path class="st1" d="M1243.7,62.1h-45.5c-2.8,0-5-2.2-5-5v0c0-2.8,2.2-5,5-5h45.5c2.8,0,5,2.2,5,5v0
		C1248.7,59.9,1246.4,62.1,1243.7,62.1z"/>
	<path class="st2" d="M1243.9,58.6h-46c-0.8,0-1.5-0.7-1.5-1.5v0c0-0.8,0.7-1.5,1.5-1.5h46c0.8,0,1.5,0.7,1.5,1.5v0
		C1245.4,57.9,1244.7,58.6,1243.9,58.6z"/>
	<path class="st1" d="M1037.2,83h-45.5c-2.8,0-5-2.2-5-5v0c0-2.8,2.2-5,5-5h45.5c2.8,0,5,2.2,5,5v0C1042.2,80.8,1039.9,83,1037.2,83
		z"/>
	<path class="st2" d="M1037.4,79.5h-46c-0.8,0-1.5-0.7-1.5-1.5l0,0c0-0.8,0.7-1.5,1.5-1.5h46c0.8,0,1.5,0.7,1.5,1.5l0,0
		C1038.9,78.8,1038.2,79.5,1037.4,79.5z"/>
	<path class="st1" d="M1029.4,93h-45.5c-2.8,0-5-2.2-5-5v0c0-2.8,2.2-5,5-5h45.5c2.8,0,5,2.2,5,5v0C1034.4,90.8,1032.2,93,1029.4,93
		z"/>
	<path class="st2" d="M1029.7,89.5h-46c-0.8,0-1.5-0.7-1.5-1.5l0,0c0-0.8,0.7-1.5,1.5-1.5h46c0.8,0,1.5,0.7,1.5,1.5l0,0
		C1031.2,88.8,1030.5,89.5,1029.7,89.5z"/>
	<path class="st1" d="M1042,103.2h-45.5c-2.8,0-5-2.2-5-5v0c0-2.8,2.2-5,5-5h45.5c2.8,0,5,2.2,5,5v0
		C1047,101,1044.7,103.2,1042,103.2z"/>
	<path class="st2" d="M1042.2,99.7h-46c-0.8,0-1.5-0.7-1.5-1.5l0,0c0-0.8,0.7-1.5,1.5-1.5h46c0.8,0,1.5,0.7,1.5,1.5l0,0
		C1043.7,99,1043,99.7,1042.2,99.7z"/>
</g>
</svg>
