<?xml version="1.0" encoding="UTF-8"?>
<svg id="Layer_2" data-name="Layer 2" xmlns="http://www.w3.org/2000/svg" viewBox="0 0 1005.26 248.63">
  <defs>
    <style>
      .cls-1 {
        fill: #03b3ee;
      }

      .cls-1, .cls-2, .cls-3 {
        stroke-width: 0px;
      }

      .cls-2 {
        fill: #01b3ee;
      }

      .cls-3 {
        fill: #02b3ee;
      }

      .cls-4 {
        fill: #fff;
        font-family: Rubik-MediumItalic, Rubik;
        font-size: 150px;
        font-style: italic;
        font-weight: 500;
      }
    </style>
  </defs>
  <path class="cls-2" d="M247.89,248.63c-66.98,0-133.96,0-200.94,0-27.51,0-46.91-19.28-46.93-46.7-.03-51.74-.03-103.48,0-155.22C.04,19.29,19.43.01,46.96,0c134.13-.01,268.25-.01,402.38,0,27.21,0,46.65,19.35,46.67,46.46.04,51.91.04,103.81,0,155.72-.02,27.11-19.48,46.44-46.68,46.44-67.15.01-134.29,0-201.44,0ZM305.17,29.96c0,2.57,0,4.54,0,6.5,0,47.58,0,95.15,0,142.73,0,1.33-.01,2.66,0,3.99.02,3.88-1.75,5.81-5.79,5.72-5.16-.12-10.36-.36-15.49.06-5.16.42-8.26-1.63-11.01-5.87-12.93-19.95-26.11-39.74-39.22-59.58-.94-1.42-2.02-2.74-3.37-4.55v99.71c1.91,0,3.54,0,5.17,0,70.97,0,141.95,0,212.92,0,12,0,17.63-5.68,17.63-17.77,0-51.07,0-102.14,0-153.21,0-12.06-5.65-17.72-17.68-17.73-43.65,0-87.3,0-130.95,0-3.82,0-7.64,0-12.21,0ZM273.16,29.96h-5.75c-73.15,0-146.3,0-219.45,0-12.35,0-17.93,5.6-17.94,17.98,0,50.91,0,101.82,0,152.74,0,12.39,5.58,17.99,17.93,17.99,48.16,0,96.31,0,144.47,0h5.63c0-2.24,0-3.88,0-5.52.04-45.92.08-91.84.12-137.76,0-2.83-.05-5.66.01-8.49.12-5.4,1.51-6.79,6.83-6.84,5-.04,10.02.29,14.99-.09,5.03-.39,7.93,1.77,10.5,5.87,13.07,20.85,26.36,41.56,39.58,62.3.75,1.18,1.62,2.27,3.08,4.3V29.96Z"/>
  <path class="cls-3" d="M417.54,98.02c-2.33,0-4.68-.16-6.99.03-5.33.44-9.07-.63-12.16-6.06-4.66-8.22-22.66-9.61-29.83-3.17-5.08,4.55-4.48,12.87,2.1,15.89,7.01,3.22,14.73,4.92,22.18,7.13,8.11,2.4,16.45,4.15,24.37,7.04,12.1,4.42,20.17,12.75,21.64,26.12,1.56,14.15-2.88,25.88-14.6,34.45-8.84,6.46-18.93,9.7-29.67,10.7-16.95,1.58-33.63.91-48.83-8.18-8.81-5.27-14.91-12.65-17.32-22.76-1.75-7.34-.08-9.44,7.27-9.45,6.16,0,12.37-.41,18.47.18,2.74.27,6.12,1.89,7.79,4.01,7.96,10.12,26.53,13.69,37.52,6.74,7.43-4.69,7.41-13.98-.72-17.32-8.22-3.38-17.16-5.02-25.72-7.62-7.3-2.21-14.75-4.16-21.72-7.17-26.84-11.62-25.28-45.15-6.77-59.09,13.43-10.12,28.78-12.14,44.96-10.89,15.05,1.17,28.38,6.24,37.89,18.36,3.26,4.15,5.28,9.52,6.92,14.63,1.46,4.55-.44,6.34-5.28,6.39-3.83.04-7.66,0-11.49,0Z"/>
  <path class="cls-1" d="M62.01,124.1c0-18.95-.01-37.9,0-56.85,0-6.24.95-7.24,7.28-7.17,19.13.22,38.32-.35,57.37,1,28.04,1.98,45.23,21.02,45.43,48.96.09,13.08.44,26.31-1.2,39.23-2.79,21.97-16.98,35.79-39.07,38.23-13.83,1.53-27.89,1.06-41.85,1.36-6.99.15-13.98.05-20.98.02-6.02-.03-6.98-.96-6.99-6.93-.02-19.28,0-38.56,0-57.85ZM95.81,161.91c8.18,0,15.83.39,23.42-.09,11.02-.7,17.91-6.95,18.53-17.85.73-12.72.62-25.53.04-38.26-.34-7.49-4.13-13.75-11.61-16.65-9.91-3.85-20.19-1.74-30.38-2.05v74.9Z"/>
  <text class="cls-4" transform="translate(519.04 181.82)"><tspan x="0" y="0">Export</tspan></text>
</svg>